:SAMPLES-PER-SECOND 30
:FULLY-SPECIFIED
:DEGREES
273
root  10.7751 40.4758 -22.5157 -6.02652 -56.863 1.94805
RightUpLeg  7.74414 -12.6348 -11.215
RightLeg  9.86552 -2.85569 5.02457
RightFoot  -6.85195 -0.249959 5.18436
RightToes  0.000482159 0.542163 -0.142577
Spine  6.59443 -0.136637 8.34195
Spine1  12.7982 1.54802 -3.47333
HEad  11.3362 30.6284 -10.3853
LeftShoulder1  8.12928 -11.7428 -46.5074
LeftArm  -12.6266 27.2898 -26.0403
LeftForeArm  23.0253 -24.307 -3.98911
LeftHand  -0.25398 0.0180481 5.50724
RightShoulder  5.00563 8.57741 35.4637
RightArm  4.76885 -19.5863 34.028
RightForeArm  -14.9003 23.7884 5.81246
RightHand  -1.93006 3.99289 -23.8857
LeftUpLeg  -10.4465 15.0687 8.18592
LeftLeg  8.5056 6.29946 -1.62026
LeftFoot  -0.00727737 0.836152 -8.44245
LeftToes  1.06248e-005 4.65854e-005 -8.185e-006
274
root  10.2866 40.3812 -21.8245 -6.15826 -57.7478 1.76019
RightUpLeg  9.317 -12.5978 -11.8433
RightLeg  9.59234 -2.01389 4.84939
RightFoot  -7.62622 -0.236211 5.66815
RightToes  0.000482159 0.542163 -0.142577
Spine  6.44942 -0.124954 8.38126
Spine1  12.7388 1.56933 -3.67134
HEad  10.156 31.9265 -10.3408
LeftShoulder1  8.08713 -11.71 -46.3622
LeftArm  -12.0192 27.246 -26.677
LeftForeArm  22.0995 -22.9326 -3.78661
LeftHand  -0.25398 0.0180481 5.50724
RightShoulder  5.0414 8.61729 35.6192
RightArm  4.50736 -19.4787 34.0436
RightForeArm  -14.5517 24.3335 5.9143
RightHand  -1.95393 4.09741 -23.9151
LeftUpLeg  -10.3565 9.9826 9.58003
LeftLeg  3.97931 11.0254 -2.80413
LeftFoot  2.27218 0.876325 -7.44135
LeftToes  1.06248e-005 4.65854e-005 -8.185e-006
275
root  9.82212 40.2591 -21.0652 -6.2146 -58.5307 1.38264
RightUpLeg  10.8299 -12.6972 -12.6117
RightLeg  9.71263 -1.15193 4.67316
RightFoot  -8.36383 -0.214693 6.07369
RightToes  0.000482159 0.542163 -0.142577
Spine  6.54592 -0.184455 8.28478
Spine1  12.516 1.47558 -3.6655
HEad  8.62849 33.5373 -10.2444
LeftShoulder1  8.08788 -11.6983 -46.4031
LeftArm  -11.1533 27.0604 -27.0234
LeftForeArm  21.634 -21.7115 -3.70022
LeftHand  -0.25398 0.0180481 5.50724
RightShoulder  5.08392 8.66798 35.7917
RightArm  4.3311 -19.3034 33.881
RightForeArm  -13.9516 24.8577 6.0072
RightHand  -1.9579 4.13001 -23.8831
LeftUpLeg  -10.2449 8.34067 10.2054
LeftLeg  0.521795 13.7304 -3.63098
LeftFoot  2.94175 0.880002 -7.15904
LeftToes  1.06248e-005 4.65854e-005 -8.185e-006
276
root  9.35912 40.0932 -20.2114 -6.23901 -59.1546 0.841271
RightUpLeg  12.4594 -12.9183 -13.667
RightLeg  10.1178 0.0585836 4.55155
RightFoot  -9.16049 -0.199134 7.2082
RightToes  0.000482159 0.542163 -0.142577
Spine  6.51222 -0.284218 8.14427
Spine1  12.5718 1.32933 -3.5461
HEad  6.87652 35.3524 -10.0852
LeftShoulder1  8.15333 -11.7829 -46.5236
LeftArm  -10.2157 26.7619 -27.16
LeftForeArm  21.6713 -20.8131 -3.70037
LeftHand  -0.25398 0.0180481 5.50724
RightShoulder  5.10147 8.6931 35.8483
RightArm  4.14781 -18.9371 33.8487
RightForeArm  -13.1902 24.9968 6.00411
RightHand  -1.87291 3.8198 -23.6179
LeftUpLeg  -10.0335 8.71362 10.2854
LeftLeg  -1.21075 16.4246 -4.62847
LeftFoot  2.83965 0.91324 -7.45943
LeftToes  1.06248e-005 4.65854e-005 -8.185e-006
277
root  8.89541 39.8906 -19.2518 -6.24789 -59.6608 0.19981
RightUpLeg  14.2501 -13.307 -15.036
RightLeg  10.6024 1.70776 4.46878
RightFoot  -9.84326 -0.184107 8.91695
RightToes  0.000482159 0.542163 -0.142577
Spine  6.20697 -0.37599 8.13756
Spine1  12.9798 1.27592 -3.67747
HEad  5.1324 37.0241 -9.64644
LeftShoulder1  8.22231 -11.9231 -46.4909
LeftArm  -9.44873 26.5023 -27.3376
LeftForeArm  22.0097 -20.4008 -3.72463
LeftHand  -0.25398 0.0180481 5.50724
RightShoulder  5.08555 8.69789 35.7047
RightArm  3.91793 -18.6806 33.9877
RightForeArm  -12.9222 24.9036 5.97014
RightHand  -1.79971 3.50208 -23.5009
LeftUpLeg  -9.90013 9.1048 9.87935
LeftLeg  -0.841289 19.2525 -5.273
LeftFoot  4.20233 0.831133 -6.3183
LeftToes  1.06248e-005 4.65854e-005 -8.185e-006
278
root  8.44222 39.6761 -18.2105 -6.56796 -60.1205 -0.223926
RightUpLeg  15.9983 -14.0055 -16.7364
RightLeg  11.4804 3.49336 4.14592
RightFoot  -10.3003 -0.163672 10.2785
RightToes  0.000482159 0.542163 -0.142577
Spine  6.04253 -0.380983 7.90011
Spine1  13.2209 1.29901 -3.7934
HEad  3.5537 38.214 -8.88248
LeftShoulder1  8.28031 -12.0023 -46.5825
LeftArm  -8.69225 26.2949 -27.3022
LeftForeArm  22.1956 -20.4754 -3.74259
LeftHand  -0.25398 0.0180481 5.50724
RightShoulder  5.10116 8.76538 35.6047
RightArm  3.85226 -18.7242 33.7793
RightForeArm  -13.2323 24.7614 5.9509
RightHand  -1.80622 3.49121 -23.6092
LeftUpLeg  -10.2436 9.48348 8.81722
LeftLeg  2.19641 19.7798 -4.34482
LeftFoot  7.25761 0.417068 -2.85626
LeftToes  1.06248e-005 4.65854e-005 -8.185e-006
